<?xml version="1.0" encoding="UTF-8" standalone="no"?>
<!DOCTYPE svg PUBLIC "-//W3C//DTD SVG 1.1//EN" "http://www.w3.org/Graphics/SVG/1.1/DTD/svg11.dtd">
<svg width="100%" height="100%" viewBox="0 0 59 56" version="1.1" xmlns="http://www.w3.org/2000/svg" xmlns:xlink="http://www.w3.org/1999/xlink" xml:space="preserve" xmlns:serif="http://www.serif.com/" style="fill-rule:evenodd;clip-rule:evenodd;stroke-linejoin:round;stroke-miterlimit:2;">
    <g transform="matrix(1,0,0,1,-0.137,-0.636)">
        <path d="M34.627,0.636C43.129,0.731 48.044,4.521 48.044,4.521L10.919,21.834L24.069,50.034L24.338,49.903L26.691,45.705L26.575,45.438L23.02,47.089L29.361,41.025L29.237,40.765L21.706,44.267L32.077,36.332L31.948,36.065L20.393,41.45L34.729,31.659L34.606,31.39L19.074,38.627L37.338,27.004L37.217,26.739L17.785,35.795L39.902,22.377L39.784,22.11L16.441,32.984L42.557,17.697L42.44,17.434L15.164,30.148L45.219,13.02L45.1,12.759L13.857,27.329L47.858,8.355L47.741,8.096L12.546,24.501L48.479,4.805C48.479,4.805 58.227,10.388 58.227,23.951C58.227,41.249 40.937,56.556 24.065,56.556C7.816,56.556 0.137,44.002 0.137,34.32C0.137,13.707 19.273,0.731 34.138,0.636L34.627,0.636Z" style="fill:#0278D4;fill-rule:nonzero;"/>
    </g>
</svg>
