<?xml version="1.0" encoding="UTF-8" standalone="no"?>
<!DOCTYPE svg PUBLIC "-//W3C//DTD SVG 1.1//EN" "http://www.w3.org/Graphics/SVG/1.1/DTD/svg11.dtd">
<svg width="100%" height="100%" viewBox="0 0 1026 238" version="1.1" xmlns="http://www.w3.org/2000/svg" xmlns:xlink="http://www.w3.org/1999/xlink" xml:space="preserve" xmlns:serif="http://www.serif.com/" style="fill-rule:evenodd;clip-rule:evenodd;stroke-linejoin:round;stroke-miterlimit:2;">
    <g id="Artboard1" transform="matrix(1.08904,0,0,1,0,0)">
        <rect x="0" y="0" width="941.667" height="237.5" style="fill:none;"/>
        <g transform="matrix(3.82602,0,0,4.16667,0,0.791667)">
            <path d="M34.627,0.445C43.129,0.54 48.044,4.33 48.044,4.33L10.92,21.644L24.07,49.844L24.339,49.713L26.692,45.514L26.575,45.248L23.021,46.898L29.361,40.835L29.237,40.574L21.706,44.076L32.078,36.142L31.948,35.875L20.394,41.26L34.729,31.469L34.607,31.199L19.075,38.437L37.338,26.814L37.218,26.549L17.786,35.605L39.902,22.187L39.784,21.919L16.442,32.794L42.558,17.506L42.44,17.243L15.165,29.957L45.22,12.83L45.1,12.569L13.857,27.139L47.858,8.165L47.742,7.905L12.546,24.311L48.48,4.615C48.48,4.615 58.227,10.198 58.227,23.76C58.227,41.059 40.938,56.365 24.065,56.365C7.817,56.365 0.138,43.812 0.138,34.13C0.138,13.516 19.274,0.54 34.138,0.445L34.627,0.445" style="fill:rgb(0,135,119);fill-rule:nonzero;"/>
        </g>
        <g transform="matrix(3.82602,0,0,4.16667,0,-84.2458)">
            <path d="M80.303,38.599C80.303,35.218 78.476,32.698 75.179,32.698C71.882,32.698 70.055,35.218 70.055,38.599C70.055,41.98 71.882,44.521 75.179,44.521C78.476,44.521 80.303,41.98 80.303,38.599ZM77.447,38.578C77.447,40.846 76.691,42.19 75.179,42.19C73.667,42.19 72.911,40.846 72.911,38.578C72.911,36.31 73.667,34.945 75.179,34.945C76.691,34.945 77.447,36.31 77.447,38.578" style="fill:rgb(0,135,119);fill-rule:nonzero;"/>
        </g>
        <g transform="matrix(3.82602,0,0,4.16667,0,-85.2958)">
            <path d="M98.174,44.521L98.174,36.688C98.174,34.399 96.662,32.95 94.163,32.95C92.462,32.95 91.076,33.559 90.362,34.105C89.711,33.517 88.556,32.95 86.729,32.95C85.112,32.95 83.621,33.307 82.466,33.769L82.466,44.521L85.322,44.521L85.322,35.512C85.721,35.344 86.246,35.239 86.897,35.239C88.115,35.239 88.871,35.848 88.871,36.856L88.871,44.521L91.748,44.521L91.748,35.806C92.147,35.449 92.714,35.239 93.428,35.239C94.583,35.239 95.297,35.869 95.297,36.982L95.297,44.521L98.174,44.521" style="fill:rgb(0,135,119);fill-rule:nonzero;"/>
        </g>
        <g transform="matrix(3.82602,0,0,4.16667,0,-104.721)">
            <path d="M110.501,43.219C110.501,39.754 108.506,37.717 105.566,37.717C104.894,37.717 104.074,37.864 103.57,38.095L103.57,32.698L100.715,32.698L100.715,48.616C101.639,49.057 103.151,49.435 104.726,49.435C108.338,49.435 110.501,47.461 110.501,43.219ZM107.623,43.45C107.623,45.949 106.532,47.188 104.894,47.188C104.369,47.188 103.843,47.083 103.57,46.957L103.57,40.195C103.928,40.027 104.495,39.901 105.02,39.901C106.636,39.901 107.623,41.224 107.623,43.45" style="fill:rgb(0,135,119);fill-rule:nonzero;"/>
        </g>
        <g transform="matrix(3.82602,0,0,4.16667,0,-83.1958)">
            <path d="M121.945,43.45L121.945,32.698L119.089,32.698L119.089,41.665C118.774,41.791 118.165,41.917 117.43,41.917C116.17,41.917 115.519,41.35 115.519,40.132L115.519,32.698L112.663,32.698L112.663,40.069C112.663,43.009 114.302,44.269 117.43,44.269C119.194,44.269 120.958,43.933 121.945,43.45" style="fill:rgb(0,135,119);fill-rule:nonzero;"/>
        </g>
        <g transform="matrix(3.82602,0,0,4.16667,0,-104.721)">
            <path d="M133.894,48.616L133.894,32.698L131.018,32.698L131.018,37.99C130.66,37.864 130.01,37.759 129.4,37.759C125.936,37.759 124.108,40.111 124.108,43.597C124.108,47.272 126.103,49.435 129.758,49.435C131.48,49.435 133.075,49.057 133.894,48.616ZM131.018,46.957C130.786,47.083 130.199,47.188 129.695,47.188C127.931,47.188 126.965,45.844 126.965,43.555C126.965,41.413 127.91,39.922 129.695,39.922C130.199,39.922 130.786,40.027 131.018,40.132L131.018,46.957" style="fill:rgb(0,135,119);fill-rule:nonzero;"/>
        </g>
        <g transform="matrix(3.82602,0,0,4.16667,0,-84.2458)">
            <path d="M144.079,41.014C144.079,38.725 142.252,38.095 140.761,37.549C139.774,37.192 139.039,36.856 139.039,35.995C139.039,35.323 139.627,34.819 140.635,34.819C141.391,34.819 142.399,35.176 142.882,35.47L143.764,33.517C142.903,33.055 141.727,32.698 140.278,32.698C137.632,32.698 136.12,34.042 136.12,36.037C136.12,38.263 137.926,38.935 139.354,39.46C140.362,39.817 141.097,40.174 141.097,41.014C141.097,41.77 140.425,42.253 139.396,42.253C138.577,42.253 137.317,41.875 136.75,41.518L135.826,43.702C136.666,44.143 138.073,44.521 139.48,44.521C142.504,44.521 144.079,43.135 144.079,41.014" style="fill:rgb(0,135,119);fill-rule:nonzero;"/>
        </g>
        <g transform="matrix(3.82602,0,0,4.16667,0,-85.2958)">
            <path d="M161.887,44.521L161.887,36.688C161.887,34.399 160.375,32.95 157.876,32.95C156.175,32.95 154.789,33.559 154.075,34.105C153.424,33.517 152.269,32.95 150.442,32.95C148.825,32.95 147.334,33.307 146.179,33.769L146.179,44.521L149.035,44.521L149.035,35.512C149.434,35.344 149.959,35.239 150.61,35.239C151.828,35.239 152.584,35.848 152.584,36.856L152.584,44.521L155.461,44.521L155.461,35.806C155.86,35.449 156.427,35.239 157.141,35.239C158.296,35.239 159.01,35.869 159.01,36.982L159.01,44.521L161.887,44.521" style="fill:rgb(0,135,119);fill-rule:nonzero;"/>
        </g>
        <g transform="matrix(3.82602,0,0,4.16667,0,-84.2458)">
            <path d="M173.248,43.702L173.248,36.73C173.248,33.832 171.631,32.698 168.733,32.698C167.095,32.698 165.478,33.118 164.533,33.517L165.247,35.449C166.045,35.113 167.347,34.777 168.418,34.777C169.72,34.777 170.539,35.218 170.539,36.394L170.539,36.982C167.116,37.171 163.903,37.78 163.903,40.867C163.903,43.177 165.604,44.521 169.006,44.521C170.707,44.521 172.408,44.143 173.248,43.702ZM170.539,42.253C170.245,42.379 169.531,42.484 168.922,42.484C167.431,42.484 166.591,41.875 166.591,40.804C166.591,39.103 168.439,38.914 170.539,38.809L170.539,42.253" style="fill:rgb(0,135,119);fill-rule:nonzero;"/>
        </g>
        <g transform="matrix(3.82602,0,0,4.16667,0,-85.2958)">
            <path d="M185.218,44.521L185.218,36.772C185.218,34.336 183.664,32.95 180.304,32.95C178.435,32.95 176.986,33.286 175.789,33.769L175.789,44.521L178.645,44.521L178.645,35.512C179.023,35.365 179.674,35.239 180.346,35.239C181.648,35.239 182.341,35.932 182.341,37.066L182.341,44.521L185.218,44.521" style="fill:rgb(0,135,119);fill-rule:nonzero;"/>
        </g>
        <g transform="matrix(1.57102,0,0,1.32734,-124.931,52.563)">
            <g transform="matrix(38.791,0,0,50,249.355,106.533)">
                <path d="M0.515,-0.519C0.515,-0.651 0.425,-0.734 0.266,-0.734C0.197,-0.734 0.132,-0.72 0.085,-0.697L0.085,-0L0.146,-0L0.146,-0.312C0.168,-0.308 0.206,-0.305 0.239,-0.305C0.416,-0.305 0.515,-0.394 0.515,-0.519ZM0.454,-0.519C0.454,-0.421 0.377,-0.356 0.238,-0.356C0.205,-0.356 0.169,-0.359 0.146,-0.363L0.146,-0.663C0.173,-0.675 0.218,-0.683 0.266,-0.683C0.386,-0.683 0.454,-0.625 0.454,-0.519Z" style="fill:rgb(0,135,119);fill-rule:nonzero;"/>
            </g>
            <g transform="matrix(38.791,0,0,50,271.078,106.533)">
                <path d="M0.466,-0.027L0.466,-0.539L0.407,-0.539L0.407,-0.062C0.383,-0.051 0.334,-0.04 0.278,-0.04C0.185,-0.04 0.138,-0.083 0.138,-0.173L0.138,-0.539L0.079,-0.539L0.079,-0.174C0.079,-0.049 0.151,0.01 0.278,0.01C0.355,0.01 0.427,-0.007 0.466,-0.027Z" style="fill:rgb(0,135,119);fill-rule:nonzero;"/>
            </g>
            <g transform="matrix(38.791,0,0,50,292.219,106.533)">
                <path d="M0.492,-0.278C0.492,-0.444 0.398,-0.547 0.259,-0.547C0.214,-0.547 0.168,-0.537 0.138,-0.522L0.138,-0.785L0.079,-0.785L0.079,-0.027C0.119,-0.006 0.179,0.01 0.24,0.01C0.382,0.01 0.492,-0.074 0.492,-0.278ZM0.433,-0.275C0.433,-0.103 0.347,-0.039 0.242,-0.039C0.199,-0.039 0.159,-0.05 0.138,-0.06L0.138,-0.474C0.166,-0.488 0.212,-0.498 0.253,-0.498C0.36,-0.498 0.433,-0.414 0.433,-0.275Z" style="fill:rgb(0,135,119);fill-rule:nonzero;"/>
            </g>
            <g transform="matrix(38.791,0,0,50,313.515,106.533)">
                <rect x="0.084" y="-0.785" width="0.059" height="0.785" style="fill:rgb(0,135,119);fill-rule:nonzero;"/>
            </g>
            <g transform="matrix(38.791,0,0,50,322.321,106.533)">
                <path d="M0.155,-0.7C0.155,-0.723 0.137,-0.741 0.114,-0.741C0.091,-0.741 0.072,-0.723 0.072,-0.7C0.072,-0.677 0.091,-0.659 0.114,-0.659C0.137,-0.659 0.155,-0.677 0.155,-0.7ZM0.143,-0L0.143,-0.539L0.084,-0.539L0.084,-0L0.143,-0Z" style="fill:rgb(0,135,119);fill-rule:nonzero;"/>
            </g>
            <g transform="matrix(38.791,0,0,50,331.126,106.533)">
                <path d="M0.413,-0.027L0.392,-0.072C0.366,-0.054 0.327,-0.041 0.289,-0.041C0.208,-0.041 0.118,-0.101 0.118,-0.27C0.118,-0.439 0.207,-0.499 0.289,-0.499C0.327,-0.499 0.366,-0.486 0.392,-0.468L0.413,-0.512C0.382,-0.533 0.335,-0.549 0.285,-0.549C0.176,-0.549 0.058,-0.471 0.058,-0.27C0.058,-0.069 0.176,0.01 0.285,0.01C0.335,0.01 0.38,-0.005 0.413,-0.027Z" style="fill:rgb(0,135,119);fill-rule:nonzero;"/>
            </g>
            <g transform="matrix(38.791,0,0,50,359.948,106.533)">
                <path d="M0.577,-0.362C0.577,-0.614 0.44,-0.734 0.268,-0.734C0.195,-0.734 0.129,-0.72 0.085,-0.697L0.085,-0.027C0.122,-0.007 0.193,0.01 0.268,0.01C0.44,0.01 0.577,-0.11 0.577,-0.362ZM0.515,-0.362C0.515,-0.14 0.403,-0.043 0.269,-0.043C0.216,-0.043 0.168,-0.052 0.146,-0.063L0.146,-0.661C0.173,-0.673 0.221,-0.681 0.269,-0.681C0.403,-0.681 0.515,-0.584 0.515,-0.362Z" style="fill:rgb(0,135,119);fill-rule:nonzero;"/>
            </g>
            <g transform="matrix(38.791,0,0,50,384.696,106.533)">
                <path d="M0.494,-0.326C0.494,-0.468 0.411,-0.549 0.286,-0.549C0.145,-0.549 0.058,-0.436 0.058,-0.27C0.058,-0.087 0.155,0.01 0.309,0.01C0.377,0.01 0.441,-0.006 0.477,-0.027L0.457,-0.073C0.423,-0.053 0.365,-0.039 0.311,-0.039C0.197,-0.039 0.123,-0.106 0.115,-0.238L0.493,-0.294C0.494,-0.306 0.494,-0.316 0.494,-0.326ZM0.437,-0.33L0.112,-0.283C0.115,-0.415 0.18,-0.502 0.286,-0.502C0.376,-0.502 0.436,-0.447 0.437,-0.33Z" style="fill:rgb(0,135,119);fill-rule:nonzero;"/>
            </g>
            <g transform="matrix(38.791,0,0,50,405.876,106.533)">
                <path d="M0.311,-0.736L0.311,-0.785C0.309,-0.785 0.303,-0.786 0.296,-0.786C0.198,-0.786 0.118,-0.73 0.118,-0.617L0.118,-0.539L0.038,-0.539L0.038,-0.494L0.118,-0.494L0.118,-0L0.175,-0L0.175,-0.494L0.301,-0.494L0.301,-0.539L0.175,-0.539L0.175,-0.617C0.175,-0.699 0.231,-0.736 0.303,-0.736L0.311,-0.736Z" style="fill:rgb(0,135,119);fill-rule:nonzero;"/>
            </g>
            <g transform="matrix(38.791,0,0,50,418.289,106.533)">
                <path d="M0.494,-0.326C0.494,-0.468 0.411,-0.549 0.286,-0.549C0.145,-0.549 0.058,-0.436 0.058,-0.27C0.058,-0.087 0.155,0.01 0.309,0.01C0.377,0.01 0.441,-0.006 0.477,-0.027L0.457,-0.073C0.423,-0.053 0.365,-0.039 0.311,-0.039C0.197,-0.039 0.123,-0.106 0.115,-0.238L0.493,-0.294C0.494,-0.306 0.494,-0.316 0.494,-0.326ZM0.437,-0.33L0.112,-0.283C0.115,-0.415 0.18,-0.502 0.286,-0.502C0.376,-0.502 0.436,-0.447 0.437,-0.33Z" style="fill:rgb(0,135,119);fill-rule:nonzero;"/>
            </g>
            <g transform="matrix(38.791,0,0,50,439.702,106.533)">
                <path d="M0.475,-0L0.475,-0.371C0.475,-0.482 0.403,-0.549 0.269,-0.549C0.195,-0.549 0.128,-0.534 0.079,-0.512L0.079,-0L0.138,-0L0.138,-0.478C0.168,-0.49 0.215,-0.5 0.269,-0.5C0.367,-0.5 0.416,-0.448 0.416,-0.368L0.416,-0L0.475,-0Z" style="fill:rgb(0,135,119);fill-rule:nonzero;"/>
            </g>
            <g transform="matrix(38.791,0,0,50,461.192,106.533)">
                <path d="M0.47,-0.027L0.47,-0.785L0.411,-0.785L0.411,-0.528C0.39,-0.536 0.348,-0.544 0.306,-0.544C0.147,-0.544 0.058,-0.425 0.058,-0.261C0.058,-0.099 0.149,0.01 0.308,0.01C0.373,0.01 0.441,-0.009 0.47,-0.027ZM0.411,-0.06C0.394,-0.05 0.345,-0.039 0.307,-0.039C0.184,-0.039 0.117,-0.129 0.117,-0.262C0.117,-0.396 0.183,-0.495 0.309,-0.495C0.346,-0.495 0.393,-0.487 0.411,-0.48L0.411,-0.06Z" style="fill:rgb(0,135,119);fill-rule:nonzero;"/>
            </g>
            <g transform="matrix(38.791,0,0,50,482.489,106.533)">
                <path d="M0.494,-0.326C0.494,-0.468 0.411,-0.549 0.286,-0.549C0.145,-0.549 0.058,-0.436 0.058,-0.27C0.058,-0.087 0.155,0.01 0.309,0.01C0.377,0.01 0.441,-0.006 0.477,-0.027L0.457,-0.073C0.423,-0.053 0.365,-0.039 0.311,-0.039C0.197,-0.039 0.123,-0.106 0.115,-0.238L0.493,-0.294C0.494,-0.306 0.494,-0.316 0.494,-0.326ZM0.437,-0.33L0.112,-0.283C0.115,-0.415 0.18,-0.502 0.286,-0.502C0.376,-0.502 0.436,-0.447 0.437,-0.33Z" style="fill:rgb(0,135,119);fill-rule:nonzero;"/>
            </g>
            <g transform="matrix(38.791,0,0,50,503.901,106.533)">
                <path d="M0.311,-0.547C0.306,-0.548 0.287,-0.549 0.265,-0.549C0.198,-0.549 0.124,-0.534 0.079,-0.512L0.079,-0L0.138,-0L0.138,-0.478C0.166,-0.491 0.215,-0.499 0.258,-0.499C0.272,-0.499 0.286,-0.498 0.298,-0.496L0.311,-0.547Z" style="fill:rgb(0,135,119);fill-rule:nonzero;"/>
            </g>
            <g transform="matrix(38.791,0,0,50,528.184,106.533)">
                <path d="M0.502,-0.27C0.502,-0.429 0.426,-0.549 0.28,-0.549C0.134,-0.549 0.058,-0.429 0.058,-0.27C0.058,-0.111 0.134,0.01 0.28,0.01C0.426,0.01 0.502,-0.111 0.502,-0.27ZM0.443,-0.27C0.443,-0.138 0.391,-0.04 0.28,-0.04C0.169,-0.04 0.117,-0.138 0.117,-0.27C0.117,-0.402 0.169,-0.5 0.28,-0.5C0.391,-0.5 0.443,-0.402 0.443,-0.27Z" style="fill:rgb(0,135,119);fill-rule:nonzero;"/>
            </g>
            <g transform="matrix(38.791,0,0,50,549.674,106.533)">
                <path d="M0.311,-0.736L0.311,-0.785C0.309,-0.785 0.303,-0.786 0.296,-0.786C0.198,-0.786 0.118,-0.73 0.118,-0.617L0.118,-0.539L0.038,-0.539L0.038,-0.494L0.118,-0.494L0.118,-0L0.175,-0L0.175,-0.494L0.301,-0.494L0.301,-0.539L0.175,-0.539L0.175,-0.617C0.175,-0.699 0.231,-0.736 0.303,-0.736L0.311,-0.736Z" style="fill:rgb(0,135,119);fill-rule:nonzero;"/>
            </g>
            <g transform="matrix(38.791,0,0,50,573.802,106.533)">
                <path d="M0.554,-0L0.425,-0.25C0.402,-0.294 0.376,-0.328 0.34,-0.344L0.34,-0.346C0.445,-0.361 0.519,-0.416 0.519,-0.536C0.519,-0.65 0.435,-0.734 0.272,-0.734C0.205,-0.734 0.135,-0.719 0.087,-0.696L0.087,-0L0.147,-0L0.147,-0.329L0.23,-0.329C0.296,-0.329 0.334,-0.299 0.363,-0.242L0.487,-0L0.554,-0ZM0.459,-0.534C0.459,-0.418 0.378,-0.378 0.25,-0.378L0.147,-0.378L0.147,-0.663C0.176,-0.675 0.226,-0.684 0.273,-0.684C0.398,-0.684 0.459,-0.623 0.459,-0.534Z" style="fill:rgb(0,135,119);fill-rule:nonzero;"/>
            </g>
            <g transform="matrix(38.791,0,0,50,596.883,106.533)">
                <path d="M0.155,-0.7C0.155,-0.723 0.137,-0.741 0.114,-0.741C0.091,-0.741 0.072,-0.723 0.072,-0.7C0.072,-0.677 0.091,-0.659 0.114,-0.659C0.137,-0.659 0.155,-0.677 0.155,-0.7ZM0.143,-0L0.143,-0.539L0.084,-0.539L0.084,-0L0.143,-0Z" style="fill:rgb(0,135,119);fill-rule:nonzero;"/>
            </g>
            <g transform="matrix(38.791,0,0,50,605.689,106.533)">
                <path d="M0.47,0.006L0.47,-0.512C0.43,-0.534 0.371,-0.549 0.309,-0.549C0.169,-0.549 0.058,-0.469 0.058,-0.277C0.058,-0.112 0.154,-0.02 0.289,-0.02C0.334,-0.02 0.382,-0.031 0.412,-0.046L0.412,0.006C0.412,0.113 0.358,0.174 0.253,0.174C0.199,0.174 0.141,0.157 0.107,0.139L0.086,0.186C0.124,0.206 0.192,0.225 0.256,0.225C0.393,0.225 0.47,0.144 0.47,0.006ZM0.412,-0.093C0.384,-0.079 0.337,-0.069 0.296,-0.069C0.193,-0.069 0.117,-0.139 0.117,-0.278C0.117,-0.439 0.203,-0.5 0.307,-0.5C0.35,-0.5 0.391,-0.49 0.412,-0.48L0.412,-0.093Z" style="fill:rgb(0,135,119);fill-rule:nonzero;"/>
            </g>
            <g transform="matrix(38.791,0,0,50,626.985,106.533)">
                <path d="M0.475,-0L0.475,-0.371C0.475,-0.486 0.397,-0.548 0.274,-0.548C0.226,-0.548 0.175,-0.533 0.138,-0.513L0.138,-0.785L0.079,-0.785L0.079,-0L0.138,-0L0.138,-0.463C0.172,-0.484 0.222,-0.498 0.266,-0.498C0.357,-0.498 0.416,-0.456 0.416,-0.368L0.416,-0L0.475,-0Z" style="fill:rgb(0,135,119);fill-rule:nonzero;"/>
            </g>
            <g transform="matrix(38.791,0,0,50,648.242,106.533)">
                <path d="M0.297,-0.001L0.297,-0.052C0.289,-0.049 0.276,-0.047 0.264,-0.047C0.216,-0.047 0.175,-0.072 0.175,-0.132L0.175,-0.494L0.297,-0.494L0.297,-0.539L0.175,-0.539L0.175,-0.695L0.118,-0.673L0.118,-0.539L0.034,-0.539L0.034,-0.494L0.118,-0.494L0.118,-0.13C0.118,-0.039 0.175,0.005 0.255,0.005C0.274,0.005 0.288,0.003 0.297,-0.001Z" style="fill:rgb(0,135,119);fill-rule:nonzero;"/>
            </g>
            <g transform="matrix(38.791,0,0,50,661.354,106.533)">
                <path d="M0.393,-0.138C0.393,-0.236 0.32,-0.267 0.236,-0.299C0.17,-0.324 0.121,-0.345 0.121,-0.41C0.121,-0.46 0.163,-0.501 0.236,-0.501C0.28,-0.501 0.326,-0.485 0.351,-0.468L0.374,-0.512C0.34,-0.533 0.289,-0.549 0.232,-0.549C0.123,-0.549 0.061,-0.488 0.061,-0.41C0.061,-0.317 0.13,-0.284 0.21,-0.254C0.28,-0.228 0.332,-0.204 0.332,-0.139C0.332,-0.078 0.279,-0.039 0.2,-0.039C0.156,-0.039 0.1,-0.055 0.07,-0.073L0.047,-0.027C0.085,-0.005 0.147,0.01 0.201,0.01C0.32,0.01 0.393,-0.049 0.393,-0.138Z" style="fill:rgb(0,135,119);fill-rule:nonzero;"/>
            </g>
        </g>
    </g>
</svg>
