<svg width="24" height="24" xmlns="http://www.w3.org/2000/svg" xmlns:xlink="http://www.w3.org/1999/xlink" xml:space="preserve" overflow="hidden"><defs><clipPath id="clip0"><rect x="0" y="0" width="24" height="24"/></clipPath></defs><g clip-path="url(#clip0)"><path d="M12 5C12.275 5 12.5 5.225 12.5 5.5 12.5 5.775 12.275 6 12 6 11.725 6 11.5 5.775 11.5 5.5 11.5 5.225 11.725 5 12 5ZM15 20C15 19.725 14.775 19.5 14.5 19.5L12.75 19.5 12.75 6.8C12.975 6.675 13.175 6.475 13.3 6.25L18.1 6.25 16.7 13.5 17.725 13.5 18.825 7.8 20.225 13.5 21.25 13.5 19.425 6.25 19.75 6.25C20.175 6.25 20.5 5.925 20.5 5.5 20.5 5.075 20.175 4.75 19.75 4.75L13.3 4.75C13.175 4.525 12.975 4.325 12.75 4.2L12.75 2.75C12.75 2.325 12.425 2 12 2 11.575 2 11.25 2.325 11.25 2.75L11.25 4.2C11.025 4.325 10.825 4.525 10.7 4.75L4.25 4.75C3.825 4.75 3.5 5.075 3.5 5.5 3.5 5.85 3.75 6.175 4.1 6.225L2.675 13.5 3.7 13.5 4.8 7.8 6.225 13.5 7.25 13.5 5.425 6.25 10.675 6.25C10.8 6.475 11 6.675 11.225 6.8L11.225 19.5 9.475 19.5C9.2 19.5 8.975 19.725 8.975 20L8.975 20.5 6 20.5 6 22 18 22 18 20.5 15 20.5 15 20Z" fill="#FF0000" fill-rule="nonzero" fill-opacity="1"/><path d="M8 14.25 2 14.25C2 15.075 3.35 15.75 5 15.75 6.65 15.75 8 15.075 8 14.25Z" fill="#FF0000" fill-rule="nonzero" fill-opacity="1"/><path d="M16 14.25C16 15.075 17.35 15.75 19 15.75 20.65 15.75 22 15.075 22 14.25L16 14.25Z" fill="#FF0000" fill-rule="nonzero" fill-opacity="1"/></g></svg>