<?xml version="1.0" encoding="UTF-8" standalone="no"?>
<!DOCTYPE svg PUBLIC "-//W3C//DTD SVG 1.1//EN" "http://www.w3.org/Graphics/SVG/1.1/DTD/svg11.dtd">
<svg width="100%" height="100%" viewBox="0 0 145 145" version="1.1" xmlns="http://www.w3.org/2000/svg" xmlns:xlink="http://www.w3.org/1999/xlink" xml:space="preserve" xmlns:serif="http://www.serif.com/" style="fill-rule:evenodd;clip-rule:evenodd;stroke-linejoin:round;stroke-miterlimit:2;">
    <g id="Artboard1" transform="matrix(0.622089,0,0,0.52325,0,0)">
        <rect x="0" y="0" width="232" height="276" style="fill:none;"/>
        <g transform="matrix(1.60749,0,0,1.91113,-75.6123,-115.092)">
            <path d="M119.2,61.059C158.591,61.059 190.571,93.04 190.571,132.43C190.571,171.821 158.591,203.801 119.2,203.801C79.809,203.801 47.829,171.821 47.829,132.43C47.829,93.04 79.809,61.059 119.2,61.059ZM113.5,78.9C104.3,81.2 98.8,87.2 98.2,95.8C97.9,100.4 98.3,102.4 100.3,106.2L102.7,111L100.3,112.5C99,113.4 96.6,116.2 94.9,118.8C92.5,122.6 92,124.5 92,129.4C92,140.3 96.9,145.9 111.7,152C123.5,156.9 125.8,158.5 127,163.1C129.9,174 116.3,178.6 102.9,171.4C97,168.1 95.7,168.8 96.2,175.1C96.5,179.2 96.8,179.6 101.3,181.9C110.4,186.4 124.1,185.8 132.3,180.4C139.5,175.7 142.3,163.7 138,155.7L136,152L139.5,148.5C144.6,143.4 146.4,139.3 146.4,133C146.4,122.1 141.7,117 125.8,110.4C115.2,105.9 111,102.3 111,97.5C111,92.8 111.8,91.1 115.1,89.5C119.2,87.3 123.8,87.7 129.9,90.5C136.2,93.5 137.4,92.9 137.3,87.3C137.2,82.7 134.7,80.5 127.9,79.1C122.3,77.9 118,77.8 113.5,78.9ZM120.4,120.6C133.1,125.9 136.8,131.8 132.5,140C129.5,145.9 127.8,146.2 118.9,142.4C107,137.4 104,134.5 104,128.4C104,124.6 108.7,117 111.1,117C111.5,117 115.7,118.6 120.4,120.6Z" style="fill:rgb(6,176,240);"/>
        </g>
    </g>
</svg>
