<svg width="24" height="24" xmlns="http://www.w3.org/2000/svg" xmlns:xlink="http://www.w3.org/1999/xlink" xml:space="preserve" overflow="hidden"><defs><clipPath id="clip0"><rect x="0" y="0" width="24" height="24"/></clipPath></defs><g clip-path="url(#clip0)"><path d="M21.25 8.5 8.875 8.5 13.5 7.475C14.175 7.325 14.6 6.65 14.45 5.975 14.3 5.3 13.625 4.875 12.95 5.025L6.2 6.525C5.95 6.6 5.7 6.75 5.5 7L3.375 9.75 1.5 9.75 1.5 17 2.75 17C4.525 17 4.65 19 8 19 8.8 19 11.45 19 12.5 19 13.325 19 14 18.325 14 17.5 14 17.1 13.85 16.75 13.6 16.5 13.65 16.5 13.7 16.5 13.75 16.5 14.575 16.5 15.25 15.825 15.25 15 15.25 14.6 15.1 14.225 14.825 13.95 15.5 13.8 16 13.2 16 12.5 16 11.675 15.325 11 14.5 11L21.25 11C21.95 11 22.5 10.45 22.5 9.75 22.5 9.05 21.95 8.5 21.25 8.5Z" fill="#4472C4" fill-rule="nonzero" fill-opacity="1"/></g></svg>