<svg width="24" height="24" xmlns="http://www.w3.org/2000/svg" xmlns:xlink="http://www.w3.org/1999/xlink" xml:space="preserve" overflow="hidden"><defs><clipPath id="clip0"><rect x="0" y="0" width="24" height="24"/></clipPath></defs><g clip-path="url(#clip0)"><path d="M9.5 16 14.5 16C14.925 16 15.25 16.325 15.25 16.75 15.25 17.175 14.925 17.5 14.5 17.5L9.5 17.5C9.075 17.5 8.75 17.175 8.75 16.75 8.75 16.325 9.075 16 9.5 16Z" fill="#7030A0" fill-rule="nonzero" fill-opacity="1"/><path d="M9.5 18.5 14.5 18.5C14.925 18.5 15.25 18.825 15.25 19.25 15.25 19.675 14.925 20 14.5 20L9.5 20C9.075 20 8.75 19.675 8.75 19.25 8.75 18.825 9.075 18.5 9.5 18.5Z" fill="#7030A0" fill-rule="nonzero" fill-opacity="1"/><path d="M10.375 21C10.45 21.85 11.15 22.5 12 22.5 12.85 22.5 13.55 21.85 13.625 21L10.375 21Z" fill="#7030A0" fill-rule="nonzero" fill-opacity="1"/><path d="M12 1.5C12 1.5 12 1.5 12 1.5 12 1.5 12 1.5 12 1.5 8.45 1.525 5.575 4.375 5.5 7.925L5.5 8.15C5.525 8.925 5.675 9.675 5.95 10.4 6.225 11.075 6.6 11.7 7.075 12.25 7.675 12.9 8.325 14.175 8.6 14.725 8.675 14.9 8.85 15 9.05 15L14.95 15C15.15 15 15.325 14.9 15.4 14.725 15.675 14.175 16.325 12.9 16.925 12.25 17.4 11.7 17.8 11.075 18.05 10.4 18.325 9.675 18.475 8.925 18.5 8.15L18.5 7.925C18.425 4.375 15.55 1.525 12 1.5ZM17 8.125C16.975 8.725 16.85 9.325 16.65 9.875 16.45 10.375 16.175 10.85 15.8 11.25 15.225 11.95 14.725 12.7 14.35 13.5L12 13.5 9.675 13.5C9.275 12.7 8.775 11.95 8.225 11.25 7.875 10.85 7.575 10.375 7.375 9.875 7.15 9.325 7.05 8.725 7.025 8.125L7.025 7.925C7.075 5.2 9.3 3 12.025 2.975 12.025 2.975 12.025 2.975 12.025 2.975 12.025 2.975 12.025 2.975 12.025 2.975 14.75 3 16.975 5.175 17.025 7.925L17.025 8.125Z" fill="#7030A0" fill-rule="nonzero" fill-opacity="1"/></g></svg>