<svg width="24" height="24" xmlns="http://www.w3.org/2000/svg" xmlns:xlink="http://www.w3.org/1999/xlink" xml:space="preserve" overflow="hidden"><defs><clipPath id="clip0"><rect x="0" y="0" width="24" height="24"/></clipPath></defs><g clip-path="url(#clip0)"><path d="M12 2.5C6.75 2.5 2.5 6.75 2.5 12 2.5 17.25 6.75 21.5 12 21.5 17.25 21.5 21.5 17.25 21.5 12 21.5 6.75 17.25 2.5 12 2.5ZM11.5 5C12.2 5 12.75 5.55 12.75 6.25 12.75 6.95 12.2 7.5 11.5 7.5 10.8 7.5 10.25 6.95 10.25 6.25 10.25 5.55 10.8 5 11.5 5ZM14.5 19 9.5 19 9.5 17.5 11.25 17.5 11.25 10 9.75 10 9.75 8.5 12.75 8.5 12.75 10 12.75 17.5 14.5 17.5 14.5 19Z" fill="#00B050" fill-rule="nonzero" fill-opacity="1"/></g></svg>